<svg class="svg-icon" style="width: 1em;height: 1em;vertical-align: middle;fill: currentColor;overflow: hidden;" viewBox="0 0 1024 1024" version="1.1" xmlns="http://www.w3.org/2000/svg"><path d="M907.32544 477.63456a38.0928 38.0928 0 0 1-38.0928 38.0928h-100.32128a75.55072 75.55072 0 0 1-62.976-33.6896l-37.94944-56.81152 32.4096-81.19296c0.68608-1.6896 0.95232-3.51232 1.51552-5.26336l67.40992 100.97664 99.91168-0.2048a38.0928 38.0928 0 0 1 38.0928 38.0928z m-500.14208 84.28544l-21.6064 153.83552-107.78624 119.30624a45.7216 45.7216 0 0 0 67.85024 61.27616l107.76576-119.28576a90.24512 90.24512 0 0 0 22.43584-47.9744l11.81696-83.456-66.89792-66.95936c-5.18144-5.14048-9.55392-10.8544-13.57824-16.7424zM650.0352 89.344c-42.05568 0-76.1856 34.10944-76.1856 76.1856s34.14016 76.1856 76.1856 76.1856c42.05568 0 76.1856-34.10944 76.1856-76.1856s-34.12992-76.1856-76.1856-76.1856zM214.59968 455.48544a37.59104 37.59104 0 0 0-50.7392 15.86176l-38.98368 74.50624a37.62176 37.62176 0 0 0 15.88224 50.75968l121.5488 63.60064a37.57056 37.57056 0 0 0 50.7392-15.88224l38.98368-74.50624a37.5808 37.5808 0 0 0-15.88224-50.72896l-121.5488-63.61088z m456.8064 201.5232l-92.02688-92.07808 92.70272-232.20224a45.69088 45.69088 0 0 0-28.06784-60.32384l-7.08608-2.34496c-0.89088 30.70976-33.86368 81.664-33.86368 81.664s10.53696-64.88064-0.68608-93.09184L559.104 244.28544c-4.4032-1.4336-15.73888-2.62144-18.4832-2.62144H402.90304a75.75552 75.75552 0 0 0-68.83328 44.288l-52.70528 115.47648a38.07232 38.07232 0 1 0 69.28384 31.60064l52.25472-115.17952h80.56832l-59.648 149.52448a83.22048 83.22048 0 0 0 18.4832 89.76384l162.07872 162.14016v177.67424a45.7216 45.7216 0 0 0 91.42272 0V715.89888a82.65728 82.65728 0 0 0-24.40192-58.89024z" fill="#333333" /></svg>