<svg class="svg-icon" style="width: 1.099609375em;height: 1em;vertical-align: middle;fill: currentColor;overflow: hidden;" viewBox="0 0 1126 1024" version="1.1" xmlns="http://www.w3.org/2000/svg"><path d="M772.887273 930.909091a32.116364 32.116364 0 0 1-13.730909-3.258182L488.727273 785.687273l-270.429091 141.963636a29.323636 29.323636 0 0 1-30.72-2.327273 28.858182 28.858182 0 0 1-11.636364-28.392727l51.665455-300.683636-218.763637-212.945455a29.090909 29.090909 0 0 1 16.058182-49.570909l302.545455-43.985454L462.661818 16.290909a29.090909 29.090909 0 0 1 52.130909 0l135.214546 273.454546 302.545454 43.985454a29.323636 29.323636 0 0 1 23.272728 19.781818 28.858182 28.858182 0 0 1-7.447273 29.789091l-218.763637 212.945455 51.665455 300.683636A29.323636 29.323636 0 0 1 772.887273 930.909091z"  /></svg>